<?xml version="1.0" encoding="UTF-8" standalone="no"?>
<!-- Created with Inkscape (http://www.inkscape.org/) -->

<svg
   xmlns:dc="http://purl.org/dc/elements/1.1/"
   xmlns:cc="http://creativecommons.org/ns#"
   xmlns:rdf="http://www.w3.org/1999/02/22-rdf-syntax-ns#"
   xmlns:svg="http://www.w3.org/2000/svg"
   xmlns="http://www.w3.org/2000/svg"
   xmlns:sodipodi="http://sodipodi.sourceforge.net/DTD/sodipodi-0.dtd"
   xmlns:inkscape="http://www.inkscape.org/namespaces/inkscape"
   id="svg4148"
   version="1.1"
   inkscape:version="0.48.4 r9939"
   width="550"
   height="550"
   sodipodi:docname="Geodet.png">
  <metadata
     id="metadata4154">
    <rdf:RDF>
      <cc:Work
         rdf:about="">
        <dc:format>image/svg+xml</dc:format>
        <dc:type
           rdf:resource="http://purl.org/dc/dcmitype/StillImage" />
        <dc:title></dc:title>
      </cc:Work>
    </rdf:RDF>
  </metadata>
  <defs
     id="defs4152" />
  <sodipodi:namedview
     pagecolor="#ffffff"
     bordercolor="#666666"
     borderopacity="1"
     objecttolerance="10"
     gridtolerance="10"
     guidetolerance="10"
     inkscape:pageopacity="0"
     inkscape:pageshadow="2"
     inkscape:window-width="1680"
     inkscape:window-height="998"
     id="namedview4150"
     showgrid="true"
     inkscape:snap-bbox="false"
     inkscape:snap-nodes="true"
     inkscape:snap-bbox-midpoints="true"
     inkscape:snap-global="true"
     showguides="false"
     inkscape:zoom="0.71"
     inkscape:cx="418.53898"
     inkscape:cy="281.97394"
     inkscape:window-x="-8"
     inkscape:window-y="22"
     inkscape:window-maximized="1"
     inkscape:current-layer="layer6">
    <inkscape:grid
       type="xygrid"
       id="grid4893" />
  </sodipodi:namedview>
  <g
     inkscape:groupmode="layer"
     id="layer3"
     inkscape:label="G"
     style="display:inline">
    <path
       style="fill:#8c0000;fill-opacity:1;stroke:#8c0000;stroke-width:1px;stroke-linecap:butt;stroke-linejoin:miter;stroke-opacity:1"
       d="M 251.96904,0.9963191 C 62.504975,22.149205 -0.50666361,179.23613 0,275 -0.90858257,405.05517 96.612333,535.47906 252,549 l 0,-249 -130,0 0,65 65,0 0,100 C 107.93434,427.31111 68.73367,358.68347 65,275 67.910271,171.95476 135.50154,82.155261 252,67 z"
       id="path4895"
       inkscape:connector-curvature="0"
       sodipodi:nodetypes="ccccccccccc" />
  </g>
  <g
     inkscape:groupmode="layer"
     id="layer4"
     inkscape:label="S"
     style="display:inline">
    <path
       style="fill:#8c0000;fill-opacity:1;stroke:#8c0000;stroke-width:1px;stroke-linecap:butt;stroke-linejoin:miter;stroke-opacity:1"
       d="m 297,0 0,300 186,0 C 469.74996,411.19307 383.15827,457.67729 361,466 l 0,-101 -64,0 0,184 c 115.37197,-4.71804 253.31409,-106.76514 253,-274 -0.0676,-13.34571 -1.15558,-33.3202 -2,-40 l -187,0 0,-151 c 34.94569,15.217779 76.12117,47.80229 95,86 l 73,0 C 496.6858,89.843901 420.84806,13.34266 297,0 z"
       id="path4897"
       inkscape:connector-curvature="0"
       sodipodi:nodetypes="cccccccccccccc" />
  </g>
  <g
     inkscape:groupmode="layer"
     id="layer6"
     inkscape:label="Geodet"
     style="display:inline">
    <rect
       style="fill:#000000;fill-opacity:1;stroke-width:0.10000000000000001;stroke-linejoin:bevel;stroke-miterlimit:4;stroke-dasharray:none;stroke:#000000"
       id="rect4925"
       width="32"
       height="9.0000086"
       x="254"
       y="238" />
    <rect
       style="fill:#000000;fill-opacity:1;stroke-width:0.10000000000000001;stroke-linejoin:bevel;stroke-miterlimit:4;stroke-dasharray:none;stroke:#000000"
       id="rect4927"
       width="11"
       height="36"
       x="264"
       y="249" />
    <rect
       style="fill:#000000;fill-opacity:1;stroke:#000000;stroke-width:0.1;stroke-linejoin:bevel;stroke-miterlimit:4;stroke-dasharray:none"
       id="rect4929"
       width="11"
       height="47"
       x="226"
       y="238" />
    <rect
       style="fill:#000000;fill-opacity:1;stroke-width:0.10000000000000001;stroke-linejoin:bevel;stroke-miterlimit:4;stroke-dasharray:none;stroke:#000000"
       id="rect4931"
       width="13"
       height="9.0000153"
       x="238"
       y="238" />
    <rect
       style="fill:#000000;fill-opacity:1;stroke-width:0.10000000000000001;stroke-linejoin:bevel;stroke-miterlimit:4;stroke-dasharray:none;stroke:#000000"
       id="rect4933"
       width="12"
       height="9"
       x="238"
       y="257" />
    <rect
       style="fill:#000000;fill-opacity:1;stroke-width:0.10000000000000001;stroke-linejoin:bevel;stroke-miterlimit:4;stroke-dasharray:none;stroke:#000000"
       id="rect4935"
       width="13"
       height="9"
       x="238"
       y="276" />
    <rect
       style="fill:#000000;fill-opacity:1;stroke-width:0.1;stroke-linejoin:bevel;stroke-miterlimit:4;stroke-dasharray:none;stroke:#000000"
       id="rect4937"
       width="11"
       height="47"
       x="188"
       y="238" />
    <rect
       style="fill:#000000;fill-opacity:1;stroke:#000000;stroke-width:0.1;stroke-linejoin:bevel;stroke-miterlimit:4;stroke-dasharray:none"
       id="rect4941"
       width="11"
       height="47"
       x="120"
       y="238"
       ry="0" />
    <rect
       style="fill:#000000;fill-opacity:1;stroke:#000000;stroke-width:0.10000000000000001;stroke-linejoin:bevel;stroke-miterlimit:4;stroke-dasharray:none"
       id="rect4943"
       width="13"
       height="9.0000219"
       x="132"
       y="238"
       ry="0" />
    <rect
       style="fill:#000000;fill-opacity:1;stroke-linejoin:bevel;stroke:#000000;stroke-width:0.1;stroke-miterlimit:4;stroke-dasharray:none"
       id="rect4945"
       width="12"
       height="8.9999647"
       x="132"
       y="256" />
    <rect
       style="fill:#000000;fill-opacity:1;stroke-linejoin:bevel;stroke-width:0.1;stroke-miterlimit:4;stroke-dasharray:none"
       id="rect4947"
       width="13"
       height="9"
       x="132"
       y="276" />
    <path
       style="fill:#000000;fill-opacity:1;stroke:#000000;stroke-width:0.10000000000000001;stroke-linecap:butt;stroke-linejoin:miter;stroke-miterlimit:4;stroke-opacity:1;stroke-dasharray:none"
       d="m 98,258 0,7 5,0 0,11 c -0.83384,2.21054 -3.333668,2.04384 -5,2 l 0,7 c 2.92517,-0.24829 7.00293,-0.21684 8,-4 0.67133,-0.0631 0.9254,-0.57127 3,3 l 5,0 0,-26 z"
       id="path4955"
       inkscape:connector-curvature="0"
       sodipodi:nodetypes="ccccccccccc" />
    <path
       style="fill:#000000;fill-opacity:1;stroke:#000000;stroke-width:0.10000000000000001;stroke-linecap:butt;stroke-linejoin:miter;stroke-miterlimit:4;stroke-opacity:1;stroke-dasharray:none"
       d="m 97,278 c -2.178709,-0.0842 -3.803977,-0.76791 -4,-3 l 0,-26 c 0.427134,-1.35337 0.893901,-2.87936 4,-3 l 0,-8 c -10.625293,-0.30983 -13.938056,4.54954 -15,11 l 0,26 c 2.766726,9.92149 9.022468,9.55039 15,10 z"
       id="path4957"
       inkscape:connector-curvature="0"
       sodipodi:nodetypes="ccccccccc" />
    <path
       style="fill:#000000;fill-opacity:1;stroke:#000000;stroke-width:0.10000000000000001;stroke-linecap:butt;stroke-linejoin:miter;stroke-miterlimit:4;stroke-opacity:1;stroke-dasharray:none"
       d="m 98,238 0,8 c 2.17371,0.1242 4.58253,-0.1577 5,3 l 0,6 11,0 0,-6 c -1.23701,-10.07374 -8.40584,-10.86949 -16,-11 z"
       id="path4959"
       inkscape:connector-curvature="0"
       sodipodi:nodetypes="ccccccc" />
    <path
       style="fill:#000000;fill-opacity:1;stroke:#000000;stroke-width:0.10000000000000001;stroke-linecap:butt;stroke-linejoin:miter;stroke-miterlimit:4;stroke-opacity:1;stroke-dasharray:none"
       d="m 164.95775,277.85915 c -2.17871,-0.0842 -3.80398,-0.76791 -4,-3 l 0,-26 c 0.42713,-1.35337 0.8939,-2.87936 4,-3 l 0,-8 c -10.6253,-0.30983 -13.93806,4.54954 -15,11 l 0,26 c 2.76672,9.92149 9.02246,9.55039 15,10 z"
       id="path4957-1"
       inkscape:connector-curvature="0"
       sodipodi:nodetypes="ccccccccc" />
    <path
       style="fill:#000000;fill-opacity:1;stroke:#000000;stroke-width:0.10000000000000001;stroke-linecap:butt;stroke-linejoin:miter;stroke-miterlimit:4;stroke-opacity:1;stroke-dasharray:none"
       d="m 167.01584,277.95067 c 2.17871,-0.0842 3.80397,-0.76791 4,-3 l 0,-26 c -0.42714,-1.35337 -0.8939,-2.87936 -4,-3 l 0,-8 c 10.62529,-0.30983 13.93805,4.54954 15,11 l 0,26 c -2.76673,9.92149 -9.02247,9.55039 -15,10 z"
       id="path4957-7"
       inkscape:connector-curvature="0"
       sodipodi:nodetypes="ccccccccc" />
    <path
       style="fill:#000000;fill-opacity:1;stroke:#000000;stroke-width:0.10000000000000001;stroke-linecap:butt;stroke-linejoin:miter;stroke-miterlimit:4;stroke-opacity:1;stroke-dasharray:none"
       d="m 200,247 c 5.94346,0.0154 8.02381,-0.24155 9,3 l 0,23 c 0.061,4.06098 -5.87551,2.75102 -9,3 l 0,9 c 8,0 20,-2 20,-13 l 0,-22 c 0,-8 -8,-12 -20,-12 z"
       id="path5006"
       inkscape:connector-curvature="0"
       sodipodi:nodetypes="ccccccccc" />
  </g>
</svg>
